/* XPM */
static char *result[] = {
/* columns rows colors chars-per-pixel */
"64 64 46 1 ",
"  c #7DD3FC",
". c #7BFDFD",
"X c #9BC6C6",
"o c #86D7FE",
"O c #87DAFE",
"+ c #8CDBFE",
"@ c #94DEFF",
"# c #99DEFE",
"$ c #A4DFFE",
"% c #8AE4E4",
"& c #86ECF0",
"* c #8DEEF0",
"= c #8AE2FF",
"- c #90EFF0",
"; c #93E2FF",
": c #9BE3FF",
"> c #97E8FF",
", c #9EE9FF",
"< c #82F1F1",
"1 c #A3E3FF",
"2 c #ACE5FF",
"3 c #A4EAFF",
"4 c #ACEBFF",
"5 c #B3E6FF",
"6 c #B9E7FF",
"7 c #B4EAFF",
"8 c #BBEBFF",
"9 c #A7F3FF",
"0 c #ACF1FF",
"q c #B4F1FF",
"w c #BCF3FF",
"e c #B4F8FF",
"r c #C4EDFF",
"t c #CAEFFF",
"y c #D0EFFF",
"u c #C4F4FF",
"i c #CDF1FF",
"p c #C6F8FF",
"a c #CCF9FF",
"s c #D4F3FF",
"d c #DBF5FF",
"f c #D0FAFF",
"g c #DFF8FF",
"h c #E1F7FF",
"j c #E3F9FF",
"k c #E9FBFF",
/* pixels */
".<<<<<<<<<<<<<<<<<<<<<<<<<<<<<<<<<<<<<<<<<<<<<<<<<<<<<<<<<<<<<<.",
"<XXXXXXXXXXXXXXXXXXXXXXXXXXXXXXXXXXXXXXXXXXXXXXXXXXXXXXXXXXXXXX<",
".X%***********************-***-****---**-----****************%X<",
"&X*ewwwuuwwuwuuupuuuppuwuuauaaaaiuaiaappaaaaapuwwwwpppwwwqque*X<",
"&X*usiissssssssdddsdddsstsdssdhhdsdhjgdddggjjgssfiisddsitrrip*X<",
".X*psiysisssssddhddsddddssdsddhhddddggddddgjjjdssssssfsfttrtw*X<",
"%X%pssssssdsssddhdddsdddsssdddsdddsssgdssdggjjdssissssdditttw*X<",
".X%pssyyyssdsfddhhdssdddstssstydddsssdgdsdddjjgssssisssdtittw*X<",
"<X*ussssdssddssdhhhdyyddsitisissdssssssdissdggggstsssssddtrtw-X<",
"<X*usysssssddssdhdhdsyyssirriitttyssiisdiiisggddssiissfddsttw%X<",
"<X*udssssssssddsddhddyytsirruit8riiitrisiiiiddddssisisssdsstw*X<",
"<X*uddsssdsysddsdhhddyrrsir88ir68riiu8ruiiriidddssssissssddtw-X<",
"<X*pdssssssiiddsddhddttrurr88r8568rrur88uiurrsddssssissssddiu*X<",
"<X-pgdssssssissssdddsyr8rr8855682278uuw76ui88sdsdsissssssdsiw*X<",
"<X-pgddssssstusdsssssyr88888522812256w8828r86rsddsssssssssdsw*X<",
"<X-ahddssssstridsyysssrr55575$2512114777127775rsssissfsidssdu*X<",
"<X*agjgsisisirttstttsirr6655$2122#++:47q::4q21qtfsssdssssssdu*X<",
"<X*agjhssiisiirriiutrtrr6652$211$#@+;34q:@:4437ussssssdssssdu*X<",
"<X*agjhdsiriiirrtrurrrrr865222$11#@+o@373:O:7336fssisddsssdsu*X<",
"<X-aghjgssriiir8rrtrrrrrr8552$1111:+oO>4w3OO44:2issiyysdssssp-X<",
"<X-adghgdiitsir888rurr888875221:11:@+O;:qq+ 34318sdsysdddssyp-X.",
"<X-fgdghdsirtttr68888r888877222:21::@+O=3w3O;4225rsssysdddddu*X<",
"<X-fhddgdstitrttr575888777877421722:@+++3qq:@2475rtsstsdddddp-X<",
"<X*fhddgdssttttir5257888277w87217771#+O+:qw7@#4758tdsiyddhddp*X<",
"<X*ajjdddssttttir752588877878w7237823::++7u81:4666rsdsysddddt*X<",
"<X*pgjhddsstttttir5276wr7778rr8728w722:##28u712686rtssssddddp*X<",
"<X*pdjddddstttytst8525ruw878uuur78r88721116tt52r8rrrisssydjja*X<",
"<X*usjjgddssitttstt8578uu878rrii88r8r8751$5ys866rrrrtssiysddp-X<",
"<X*usdjjdddyttttssir8788ir888tiirrrrrr86$56tstr6rtrrrsssysddp*X&",
"<X*usddhhhdsytttissar868uur88rtitrrtiurr56rrsdyrriirtisssssdp*X<",
"<X%psdhkkhdsytttisssr888riirrtsydtttiirr6rrrtdstriiiiisssssdp-X<",
"<X*pddhkkhjdsttsssdsir888ssr6tsydsttisttrrrtsssstassitisytysp-X<",
"<X*ihhhkkkkhdyysifdfsirr6isittisdsiisistttttyssdssssdyysdsdsi*X&",
"<X-fhhdjkkjjdyysssdddstrrisstttidsssisitsttttssdsssddsssdddsa*X<",
"<X-ajdddkjjjdsysissdddiirtsssttisssssysyssysssdddsssddsyddddp-X<",
"<X*ajhjdgjkkjdsssisfddsitttssitisddsstsssssyssddddsddddyyddsp-X<",
"<X*agjgddgjjjgdsssisddssirtydssissddsstssssssssdddsddddsydddu*X<",
"<X*pdgdsddjjjjdssisssdsstrttssssssdsstysssssssdddddsddddyssdp*X<",
"<X*udggsddggjjgsissssssdttttssssisddsssyssssssddhdddsdddssssu*X<",
"<X*wfdddssddjjgssssiisddtttridsisssddsysssddssddhhddsdddstasu*X<",
"<X*uisddsisdjjgdissssssddirttysdddsdysssdysddasdhhddsssdsstiw*X<",
"<X*utisfsiisdggdssisisssdsttyssdsddsdysdsssdddsddhhdsssssirrw*X<",
"<X*wrutaiitsddddsssiissdsssyysdddddddssssssssddsdhhdsytysirrq*X<",
"<X*qrr8tiirridddsssisssssddttddsdddddsssddsysddsddhhsytratr8q*X<",
".X*quw68riurisgssssiiisssddyyydsdddjddsssssisddsddhddttrtur84*X<",
"&X&0wtw86ut68ssddfssssssssssydsddddgddsssssttsssydsdsyr88r883*X<",
"<X&98w8828u86rissssssssssddsyyshddddgddsssssttsdydssssr888883*X<",
"<X%,47q7127776udfsssssisssssdyyhddhjjgdsyssstrtdyydssttr55773&X<",
"<X%=>2q7>:2w238assssssssssddsshhkdhdjjgsissssrttyttytitr66521&X<",
"<X&=@34q::>2412usssssdsssssssydhhhhhjjgssiiittrrytrtuirr66523&X<",
".X&Oo+3q3>O:7318assyssdssssdddddkhddgjgdsititirrrutrrrrrr655,&X<",
"&X<=oO:4w3OO42>2isstsssddsssddhddkkjdjkgsirtsir8rrirrrr8r6521&X<",
".X<=OO;>qq@ 3411ryssssdddsssddhddkkhdhhddsutiir88rrurrr888773*X.",
"%X%;;+++2q3o:4415tsdsysddddsddhhdhkhdddkssttittr6688888886773<X&",
".X&>:+OO,wq:@37726ssstydgdddddhhhhhkhddjdstttttt8555888777784&X<",
"%X&>@O+@>0u4@:275rtsdtyddgddddhhhydkkddjdsstttiir755788827780&X<",
"<X*311#+o7p81$2786rsdstsdddddddhhyhhhhhdddstrttir552788877870*X.",
"<X&921:@@28u712866rtssssydhdddddhhyhhhhddsstttttir5256w86778e*X&",
"<X*46721118ar52r8rrusssyddhhddddhhyhdhhdddsytttist8527ruw778q*X&",
"<X*qu8772$5isr588rrrtsssyyddddddyhhydhhhddsittttsit8578ui876q%X.",
"<X&9eq44,34qwwq4eqq77uuw8uuapuwupppuraaapauuwwwewwwq4300eq049*X.",
"<X%**%****-******-*****%-***----****%-**-%*****-***********%*%X<",
"<XXXXXXXXXXXXXXXXXXXXXXXXXXXXXXXXXXXXXXXXXXXXXXXXXXXXXXXXXXXXXX<",
".<<<<&.&&.<<&<<<<<<<<<.%.&.&<<<<<&<<<<<<.%.&&.<<<<<<<<<<<<<.%<<."
};
