/* XPM */
static char *result[] = {
/* columns rows colors chars-per-pixel */
"64 64 41 1 ",
"  c #343434",
". c #3C3C3C",
"X c #434343",
"o c #4C4C4C",
"O c #545454",
"+ c #5B5B5B",
"@ c #646464",
"# c #686867",
"$ c #6B6B6B",
"% c #70706F",
"& c #747474",
"* c #787777",
"= c #787877",
"- c #777878",
"; c #7C7C7C",
": c #807F7F",
"> c #7F8080",
", c #838383",
"< c #888887",
"1 c #888788",
"2 c #8C8C8C",
"3 c #8F908F",
"4 c #8F9090",
"5 c #939393",
"6 c #989797",
"7 c #989897",
"8 c #979798",
"9 c #989798",
"0 c #979898",
"q c #9B9B9B",
"w c #9FA09F",
"e c #9F9FA0",
"r c #9FA0A0",
"t c #A3A3A3",
"y c #A8A8A7",
"u c #A7A7A8",
"i c #A7A8A8",
"p c #ABABAB",
"a c #B3B3B3",
"s c #BCBCBC",
"d c #C4C3C4",
/* pixels */
"&;$;,8772-#@#;et3,,;;#+@@@O;qu57,&#+@;q2,&$&@@@+@15,1q2;$&2--@%;",
"$;;87t78,;$&0pp75pw1;++&%&$8qt85,$++$5w8,;&$@OO+,55;;5;@+#;#Oo+-",
"29aayt41;=#-paq31pt1&@@=;;,2552,&@OO#205,;$@@@&1w5<&$,-+O+@O X#5",
"ptap80>2-=@&yw5;*55;%#;,,;;>1,,$++O$,35q5,$@,5rt72;#+$&;&-@o @es",
"q8tp8;&3,;#;751&%-;;:2,&,,,;<,;#+$#&;<8q0>$%5eq71,#XX+;,;&;,;aaa",
"51-;825yq114t,;&@&1t62;$,15877,%##-,215q7157puq2>%O.O#;,>,1q5aqa",
"1,;;aapur578t5,,$,7u72&@&5wt852&#+;,58ttq8tut82,&oXo-7uq5quu6u5e",
"7,,1wuupt2q2qq1;@;655,;+&qt8,&;;,&5tqtwuuqtq7,,&+XX$1807utt5,46e",
"8,58q8852>24q71&$;2,,;-+;u7,;@#;52ir7087811>;&&#o.o;,58qe5722qqq",
"-%>55255,#&,e5,&&,288,&@;p7,&$&;25p7q724,&#&,;$+Xo@22187,,,8q8,;",
"%$&1524,;#@-,3588wuq2;##&q91&%&%*1t8052,$+O@53&+XO;ypppa965951;;",
"+@#-,:1:&@+%&,0uupuq<,$$&222&&&%&3r2111&OXO,tq,#@;aaauqayt652:$+",
"O+#$$#-&@++@#>upppuq3t8;;1855>&-;752,1,$OX+5t7212qdapyttue4;;@OO",
"%#@+@@%#+O@&,7uuq778qtt7865,752,42,;&;$OO@,t7857ruaaptq575<&@##&",
";-$+@&,;$+%,qttpttq50787q75<752,1;;$@+Oo@;5p832upqpapt8,5,&@O$@$",
"1,11355<=%3taw88qq7555;7pau11,2>;@OoooO@187pq0qptqtpt71*<>$+@&&&",
">45845221,iap72127utq<#qup7,&;,,$OXooO&5t12tp7qtq0085<,*;1;,1,&@",
",2241,,<2,7tt54:>,qq8,#tqt2;;52;+O+@#;tp85qpayu75252>&&&-177q1,;",
"qte81&86w857q,;&;;q88&+4q4;&<ut81,q,$;tq07ppatput2;,$@@$%<ut8$$7",
"t8251,tq5<,<4,,->,82,$O-5&&;8taqq,5pq7tt7uptu8tutq,;$@@,13tq5;8s",
"tq28utpu5,;,,;;;>>2,;@O&5527e5utq,;qptyaapu7q4qq351>$@@57qpq85wp",
"t8;,7qq1<1,821;$#&&$+@$&,7utq55p752tuwqautt75,,4;;,:&@$7q77tappp",
"74,,pp0,2ppu7,#@@&&&@$$&;8at8<,tt0755,5t5<5811&>&$,;$@&tqq0qi77r",
"u7,,5qt7papq,@oO%,1,$#@-2qtq52,557051&;5,&;5:&#%;;<;=;2pt788t27t",
"pq215upppir5,%#3py85#@=,2551<,,:;132,$&,;;&2,&@@$,71;,7uuq52q7pp",
"tq2,2qptq412587asy1;O+qqq53,:;>&$,85;$;q2;#,,;##@1qq55tt72;:rruq",
"55,17tu78,,qapqpda2#o$spq31=%&%##%;<,;5p72&,15;%#0tu85p72,#$tteq",
",<;>,1525,&8pt15aapq&,stptt5;#O+@$$-,15t8;@188;;,ptr75tp4:$@8tq5",
";&&;;&251;-8u8=5saq1;qapw78221@++#%&>,233;$qq8&,uaapu51774;#;071",
"&&&&##&,,,>552;8ppt8&2aap73,,;&&,&&$;;,1,&;75&#2pt7u81;,22;@$5q<",
"&$@OXX+;1>,1,;;2572,;qsat8<;;%;,e,;@@#;>;;&5,+&up7782,&-;;@O@45>",
";&#+o+;<,;;,,;*=&5q7>552,55;;#;,8<$##;,,&&#&@+1q8;;,,&@#&+X+,q8<",
",&#++;q2,&%%@@++#24,1e3-%&2&&@&;&:#;,8771;@@#;qt2,,;=#+@@@+;qt5q",
",&++$5t5>:%$@+O+,55;;3-@+#;#Oo+&$-;57u98,-$-0pp75pt1;++&%&$8qu55",
"&@OO#575>:%@@#&2e51&%,*+O+@O X#829aayt3<;;#-paq32pt<=+@=;;;5452,",
"++O$;48q4,$@:5rt62;$O$&;-&#o @tspeaa88>2--@&pr5;;35;&#;,,;;;1,,$",
"+$#&;,0e8>%%5wq71,@XX+;<;--,;aaaq8tp5;;2,;#;751&$-;;>2,&,,,;1<;#",
"##-,2147814qpt72:%OXO@;>:>195ptp51&;525pq115t1;&@&2w62;$,158q7,&",
"@+;158rtq8ttt82,*oXo-quq5qup5u5t1,;;aapur575t51;$,qt72*@&2qu552&",
",&8rtrtuueeqq1,&+XX$1679utt8,58r8,<2quupt1q4q71;#;853,;+-qt8,&;-",
"52pe0087511>;&&#oXo;,857q5721tqq8,58e8851,44e71&#;1,,;;+;t7,;@$;",
"22p7q752,&$&,>#+Xo@22287,,,778,;&&,24454,$%,q5,&;,388,&+;pq,-$&*",
";1t7851,%+o@55&+Xo;iipia885851;;&$&1524,;$#&,5588ttq2;#$&q71%&&$",
"&2w2<<<&OXO,wq:#@;aaaytaut852:$++@#*>:2:&++%&,7uupuq1,$$&242&*&%",
";852,2,$OX+5t7412qdaputwut2,-#OOO+##%$-%#++##:upupyq5t5;;1842,&&",
"44,;&&$OO@,u7557tuaaptq575,&@##&&#@+@@%#+O@&,8utq7787ut7503<q52,",
"1;;#@+OO@;5p832upqpapt8,4,-#O%@$;&%+@&:-#+%>qttuteq8775q7q51755,",
";@OoooO@187pq87ptqtyt71-1>$++&&%1,1<4851-%5tat88qw7555;7pau21,1;",
"$Oooo+&5t11up7qtq7785,,-;1;,1,%@>35855221,tap72127utq1$7uiq,&;,>",
"+O+@@;tu63qpaui75282,&&-&27qq1,;,125,,,,210tu55>:,q78,#tqt2-;82>",
"<,7,$;tt77apptppw1;,#@+$$<ut5#&0quq01-07w857q1;&;;q88&+5q2;&<tu5",
"7,5uq7tw7uptu6tuuq,;%@#,13tq5:0st725<,tq5,,<2,;;>,62,#O=5=&;8taw",
"q,>qytyaapp772qq551,$+@57quq75tprq58utpu5,;,,,;;,>2,;@+%5437e5ut",
"722tyqeauwe78,,2;;,;;@$7qq0uapppt8;;7q72,2,812*$#&&#O@$&,qytq55p",
"u8835<5w5<382,;,&#,;&@&tqq9qu77q75;<pu7,3ppu8;#@@&&&@$$&;5at6<,t",
"87851&>5,&;8:&@&;;1;;&2ut788w2qti71,5tq7papq,@oO$<1,$#@;3qtq52,5",
";142,%&,:;%2,&@@$,71,,8uiq52q7pppq2<5upppuq8,%$3py55$@*,2552<,,>",
"$>65;#;q2;$,:;#@@,7t25tt72;:rruqtw2,2qptt212587asy2:OOeqq33,:;>&",
"$%;1>;5p71&,15;%@8tt05p721##turq52,17tu88,,qppepsa2#O$spe3<*%&%$",
"@$%->25t8;@<88:;,pttq8ty4:#@8te4,,;,,<525,&8aq<5asp9&,atytt5-#O+",
"+$%&>,142;%qq8&,uaapt51q74;#:072:&&;=&252;&9u7*5saq1;qaye9642<#+",
">%&%::,11&;75&#2ptqu81;,22;@$4q,&&&&##;,,,>582;6upt8&1sayq2,,;-%",
"e,-@@$;>;--5,+&upq8821&&;:@O@45:%%@+XX+;1:>2,;;25q2,;qsae61;;$-,",
"91$@#-,,-%#&@+<q5;-,>&##%+X+,r5<;&#+oO;,,;;,,;-&&877>552144>:#;,"
};
